<svg xmlns="http://www.w3.org/2000/svg" xmlns:xlink="http://www.w3.org/1999/xlink" width="200" zoomAndPan="magnify" viewBox="0 0 150 52.499999" height="70" preserveAspectRatio="xMidYMid meet" version="1.0"><defs><g/><clipPath id="8e8d927c41"><path d="M 0.707031 0 L 149.292969 0 L 149.292969 8 L 0.707031 8 Z M 0.707031 0 " clip-rule="nonzero"/></clipPath><clipPath id="9aa5c4091c"><path d="M 0.707031 44 L 149.292969 44 L 149.292969 52.003906 L 0.707031 52.003906 Z M 0.707031 44 " clip-rule="nonzero"/></clipPath><clipPath id="b23aa645fd"><path d="M 0.707031 0 L 149.292969 0 L 149.292969 8 L 0.707031 8 Z M 0.707031 0 " clip-rule="nonzero"/></clipPath><clipPath id="bea1f4f2e6"><path d="M 0.707031 44 L 149.292969 44 L 149.292969 52.003906 L 0.707031 52.003906 Z M 0.707031 44 " clip-rule="nonzero"/></clipPath></defs><g fill="#6d4d3a" fill-opacity="1"><g transform="translate(1.124228, 25.379159)"><g><path d="M 18.28125 -6.421875 C 15.441406 -3.652344 11.789062 -0.808594 7.621094 -0.808594 C 5.882812 -0.808594 4.730469 -1.371094 3.726562 -2.792969 C 4.484375 -2.648438 5.21875 -2.546875 6.003906 -2.546875 C 9.140625 -2.546875 11.886719 -3.75 14.363281 -5.636719 C 16.394531 -7.207031 18.503906 -9.484375 18.503906 -12.230469 C 18.503906 -14.484375 16.273438 -15.21875 14.386719 -15.21875 C 12.425781 -15.21875 10.757812 -14.65625 9.019531 -13.773438 C 6.738281 -13.554688 4.753906 -13.210938 2.867188 -11.835938 C 1.226562 -10.636719 0.0742188 -8.894531 0.0742188 -6.8125 C 0.0742188 -4.902344 1.519531 -3.527344 3.210938 -2.917969 C 4.484375 -0.757812 6.027344 0.0234375 8.503906 0.0234375 C 10.710938 0.0234375 12.695312 -0.660156 14.632812 -1.714844 C 16.835938 -2.917969 18.601562 -4.632812 20.316406 -6.421875 L 22.890625 -6.421875 C 22.105469 -5.074219 20.757812 -2.671875 20.757812 -1.101562 C 20.757812 -0.539062 21.101562 0 21.714844 0 C 22.867188 0 25.316406 -2.425781 26.078125 -3.257812 C 26.222656 -3.40625 26.933594 -4.191406 26.933594 -4.410156 C 26.933594 -4.4375 26.910156 -4.484375 26.886719 -4.484375 C 26.714844 -4.386719 25.808594 -3.429688 25.636719 -3.257812 C 25.070312 -2.695312 23.085938 -0.660156 22.277344 -0.660156 C 22.058594 -0.660156 21.957031 -0.90625 21.957031 -1.078125 C 21.957031 -2.132812 25.414062 -7.402344 26.050781 -8.355469 C 26.835938 -9.535156 27.667969 -10.683594 28.503906 -11.835938 C 29.457031 -13.210938 30.414062 -14.558594 31.445312 -15.882812 C 31.640625 -16.125 32.007812 -16.617188 32.007812 -16.960938 C 32.007812 -17.351562 31.714844 -17.425781 31.394531 -17.425781 C 30.09375 -17.425781 27.570312 -15.074219 26.664062 -14.261719 C 24.753906 -12.546875 22.890625 -10.757812 21.003906 -8.996094 C 20.242188 -8.257812 19.460938 -7.523438 18.652344 -6.8125 L 16.46875 -6.8125 C 16.320312 -6.8125 16.125 -6.789062 16.125 -6.59375 C 16.125 -6.445312 16.371094 -6.421875 16.46875 -6.421875 Z M 20.660156 -6.8125 C 22.300781 -8.601562 23.917969 -10.414062 25.5625 -12.179688 C 26.417969 -13.136719 27.253906 -14.09375 28.183594 -14.972656 C 28.796875 -15.5625 30.339844 -16.960938 31.222656 -16.960938 C 31.320312 -16.960938 31.394531 -16.960938 31.394531 -16.835938 C 31.394531 -16.691406 29.824219 -15.074219 29.628906 -14.851562 C 27.300781 -12.304688 25.097656 -9.632812 23.085938 -6.8125 Z M 18.136719 -12.179688 C 18.136719 -11.496094 17.914062 -10.785156 17.644531 -10.144531 C 16.566406 -7.621094 14.3125 -5.757812 11.933594 -4.484375 C 10.292969 -3.601562 8.160156 -2.917969 6.296875 -2.917969 C 5.34375 -2.917969 4.4375 -3.039062 3.503906 -3.257812 C 3.332031 -3.824219 3.234375 -4.238281 3.234375 -4.851562 C 3.234375 -8.355469 6.152344 -11.691406 9.019531 -13.382812 C 10.046875 -13.355469 11.199219 -13.257812 12.203125 -12.941406 C 12.449219 -12.867188 13.011719 -12.597656 13.257812 -12.597656 C 13.332031 -12.597656 13.382812 -12.644531 13.382812 -12.71875 C 13.382812 -13.332031 10.390625 -13.722656 9.851562 -13.773438 C 11.371094 -14.460938 12.867188 -14.902344 14.558594 -14.902344 C 16.25 -14.902344 18.136719 -14.140625 18.136719 -12.179688 Z M 8.085938 -13.285156 C 5.464844 -11.445312 2.890625 -8.085938 2.890625 -4.753906 C 2.890625 -4.289062 2.941406 -3.847656 3.0625 -3.382812 C 1.617188 -4.019531 0.390625 -5.121094 0.390625 -6.8125 C 0.390625 -8.601562 1.667969 -10.539062 3.089844 -11.542969 C 4.535156 -12.574219 6.324219 -13.136719 8.085938 -13.285156 Z M 8.085938 -13.285156 "/></g></g></g><g fill="#6d4d3a" fill-opacity="1"><g transform="translate(27.907395, 25.379159)"><g><path d="M 6.101562 -4.335938 C 6.101562 -4.410156 6.027344 -4.460938 5.957031 -4.460938 C 5.734375 -4.460938 2.304688 -0.5625 1.03125 -0.5625 C 0.832031 -0.5625 0.6875 -0.710938 0.6875 -0.90625 C 0.6875 -2.277344 3.503906 -4.949219 4.3125 -5.734375 C 4.386719 -5.808594 4.804688 -6.152344 4.804688 -6.273438 C 4.804688 -6.347656 4.679688 -6.445312 4.632812 -6.496094 C 4.167969 -6.371094 3.652344 -6.226562 3.1875 -6.226562 C 2.964844 -6.226562 2.746094 -6.296875 2.546875 -6.398438 C 2.769531 -6.617188 3.0625 -6.910156 3.0625 -7.253906 C 3.0625 -7.5 2.941406 -7.792969 2.648438 -7.792969 C 2.035156 -7.792969 1.8125 -6.960938 1.8125 -6.46875 C 1.25 -5.785156 0.660156 -5.121094 0.0234375 -4.507812 C -0.0234375 -4.460938 -0.171875 -4.335938 -0.171875 -4.238281 C -0.171875 -4.167969 -0.121094 -4.117188 -0.0507812 -4.117188 C 0.121094 -4.117188 1.691406 -5.855469 1.910156 -6.101562 C 2.132812 -5.929688 2.5 -5.785156 2.769531 -5.785156 C 3.015625 -5.785156 3.257812 -5.808594 3.503906 -5.882812 C 2.402344 -4.976562 -0.367188 -2.769531 -0.367188 -1.199219 C -0.367188 -0.515625 0.0234375 -0.0976562 0.710938 -0.0976562 C 1.960938 -0.0976562 4.4375 -2.597656 5.34375 -3.480469 C 5.441406 -3.578125 6.101562 -4.214844 6.101562 -4.335938 Z M 6.101562 -4.335938 "/></g></g></g><g fill="#6d4d3a" fill-opacity="1"><g transform="translate(33.812927, 25.379159)"><g><path d="M -0.148438 -4.4375 C -0.859375 -3.601562 -2.109375 -2.230469 -2.109375 -1.054688 C -2.109375 -0.367188 -1.640625 0 -0.980469 0 C 0.613281 0 3.257812 -2.746094 4.289062 -3.796875 C 4.386719 -3.898438 4.753906 -4.289062 4.753906 -4.386719 C 4.753906 -4.460938 4.679688 -4.484375 4.632812 -4.484375 C 4.484375 -4.484375 4.117188 -4.019531 4.019531 -3.921875 C 3.308594 -3.234375 0.367188 -0.390625 -0.710938 -0.390625 C -0.980469 -0.390625 -1.226562 -0.589844 -1.226562 -0.882812 C -1.226562 -1.519531 -0.515625 -2.253906 -0.148438 -2.71875 L 4.214844 -8.015625 L 5.757812 -8.015625 L 6.003906 -8.429688 L 4.507812 -8.429688 L 7.132812 -11.566406 L 5.757812 -11.371094 L 3.285156 -8.429688 L 1.863281 -8.429688 L 1.59375 -8.015625 L 2.941406 -8.015625 Z M -0.148438 -4.4375 "/></g></g></g><g fill="#6d4d3a" fill-opacity="1"><g transform="translate(38.346217, 25.379159)"><g><path d="M 4.191406 -8.332031 C 4.191406 -8.601562 3.96875 -8.824219 3.699219 -8.824219 C 3.285156 -8.824219 2.890625 -8.457031 2.890625 -8.039062 C 2.890625 -7.769531 3.113281 -7.546875 3.382812 -7.546875 C 3.796875 -7.546875 4.191406 -7.914062 4.191406 -8.332031 Z M 0.636719 -5.316406 C -0.0234375 -4.484375 -2.132812 -2.109375 -2.132812 -1.003906 C -2.132812 -0.417969 -1.617188 0 -1.054688 0 C 0.269531 0 3.332031 -2.941406 4.214844 -3.773438 C 4.335938 -3.898438 4.707031 -4.167969 4.707031 -4.335938 C 4.707031 -4.386719 4.679688 -4.460938 4.609375 -4.460938 C 4.507812 -4.460938 0.246094 -0.390625 -0.929688 -0.390625 C -1.152344 -0.390625 -1.273438 -0.515625 -1.273438 -0.734375 C -1.273438 -1.324219 0.21875 -3.113281 0.589844 -3.554688 L 2.941406 -6.46875 L 1.445312 -6.324219 Z M 0.636719 -5.316406 "/></g></g></g><g fill="#6d4d3a" fill-opacity="1"><g transform="translate(42.879507, 25.379159)"><g><path d="M 7.449219 -4.363281 C 7.449219 -4.4375 7.375 -4.460938 7.328125 -4.460938 C 7.207031 -4.460938 6.199219 -3.480469 6.078125 -3.382812 C 4.804688 -2.253906 2.109375 -0.320312 0.417969 -0.320312 C 2.058594 -1.128906 3.847656 -2.476562 3.847656 -4.484375 C 3.847656 -5.390625 3.359375 -6.078125 2.890625 -6.8125 C 3.136719 -7.082031 3.40625 -7.402344 3.40625 -7.792969 C 3.40625 -7.988281 3.285156 -8.210938 3.0625 -8.210938 C 2.523438 -8.210938 2.402344 -7.402344 2.378906 -7.007812 C 1.714844 -6.101562 0.859375 -5.316406 0.0742188 -4.507812 C 0.0234375 -4.460938 -0.195312 -4.265625 -0.195312 -4.167969 C -0.195312 -4.117188 -0.171875 -4.042969 -0.0976562 -4.042969 C 0.0234375 -4.042969 2.179688 -6.296875 2.476562 -6.617188 C 2.820312 -6.125 2.917969 -5.785156 2.917969 -5.195312 C 2.917969 -3.601562 1.003906 -0.34375 -0.785156 -0.34375 C -1.101562 -0.34375 -1.496094 -0.613281 -1.496094 -0.957031 C -1.496094 -1.667969 -0.269531 -1.078125 -0.269531 -1.839844 C -0.269531 -2.132812 -0.589844 -2.230469 -0.832031 -2.230469 C -1.46875 -2.230469 -1.863281 -1.640625 -1.863281 -1.054688 C -1.863281 -0.0742188 -0.757812 0 -0.0234375 0 C 2.179688 0 4.265625 -1.570312 5.929688 -2.867188 C 6.152344 -3.039062 7.449219 -4.042969 7.449219 -4.363281 Z M 7.449219 -4.363281 "/></g></g></g><g fill="#6d4d3a" fill-opacity="1"><g transform="translate(50.132772, 25.379159)"><g><path d="M 5.046875 -5.5625 C 5.074219 -5.636719 5.097656 -5.734375 5.097656 -5.808594 C 5.097656 -6.25 4.507812 -6.371094 4.167969 -6.371094 C 2.058594 -6.371094 -1.984375 -3.628906 -1.984375 -1.347656 C -1.984375 -0.539062 -1.371094 0 -0.589844 0 C 0.34375 0 1.46875 -1.152344 2.109375 -1.738281 C 2.007812 -1.445312 1.886719 -1.078125 1.886719 -0.785156 C 1.886719 -0.246094 2.328125 0 2.820312 0 C 4.265625 0 6.714844 -2.230469 7.695312 -3.1875 C 7.867188 -3.332031 8.773438 -4.140625 8.773438 -4.335938 C 8.773438 -4.410156 8.75 -4.460938 8.675781 -4.460938 C 8.554688 -4.460938 4.484375 -0.417969 3.234375 -0.417969 C 3.0625 -0.417969 2.84375 -0.515625 2.84375 -0.734375 C 2.84375 -1.03125 3.601562 -2.035156 3.796875 -2.277344 L 6.984375 -6.296875 L 5.585938 -6.226562 Z M 4.609375 -5.539062 C 4.609375 -4.4375 0.464844 -0.292969 -0.589844 -0.292969 C -0.832031 -0.292969 -1.054688 -0.5625 -1.054688 -0.808594 C -1.054688 -1.714844 0.757812 -3.601562 1.347656 -4.191406 C 1.960938 -4.804688 3.160156 -6.027344 4.117188 -6.027344 C 4.386719 -6.027344 4.609375 -5.808594 4.609375 -5.539062 Z M 4.609375 -5.539062 "/></g></g></g><g fill="#6d4d3a" fill-opacity="1"><g transform="translate(58.758279, 25.379159)"><g><path d="M -1.445312 -0.195312 L -0.0742188 -0.269531 C 1.300781 -1.738281 2.402344 -3.503906 3.96875 -4.804688 C 4.363281 -5.121094 5.515625 -6.152344 6.078125 -6.152344 C 6.226562 -6.152344 6.347656 -6.027344 6.347656 -5.882812 C 6.347656 -5.097656 3.285156 -2.378906 3.285156 -1.054688 C 3.285156 -0.539062 3.75 -0.0742188 4.265625 -0.0742188 C 5.980469 -0.0742188 8.285156 -2.769531 9.410156 -3.945312 C 9.507812 -4.042969 9.777344 -4.289062 9.777344 -4.410156 C 9.777344 -4.460938 9.753906 -4.558594 9.679688 -4.558594 C 9.460938 -4.558594 6.054688 -0.539062 4.679688 -0.539062 C 4.4375 -0.539062 4.335938 -0.6875 4.335938 -0.90625 C 4.335938 -2.058594 7.277344 -4.386719 7.277344 -5.757812 C 7.277344 -6.226562 6.910156 -6.542969 6.46875 -6.542969 C 5.367188 -6.542969 4.167969 -5.417969 3.359375 -4.753906 C 3.503906 -5.097656 3.675781 -5.441406 3.675781 -5.808594 C 3.675781 -6.296875 3.359375 -6.667969 2.867188 -6.667969 C 2.109375 -6.667969 1.863281 -6.347656 1.347656 -5.832031 C 1.03125 -5.515625 0.6875 -5.171875 0.367188 -4.851562 C 0.292969 -4.777344 -0.171875 -4.335938 -0.171875 -4.238281 C -0.171875 -4.191406 -0.148438 -4.117188 -0.0742188 -4.117188 C 0.246094 -4.117188 1.863281 -6.199219 2.546875 -6.199219 C 2.746094 -6.199219 2.84375 -6.027344 2.84375 -5.855469 C 2.84375 -5.34375 1.570312 -3.871094 1.273438 -3.503906 Z M -1.445312 -0.195312 "/></g></g></g><g fill="#6d4d3a" fill-opacity="1"><g transform="translate(68.290439, 25.379159)"><g><path d="M 7.449219 -4.363281 C 7.449219 -4.4375 7.375 -4.460938 7.328125 -4.460938 C 7.207031 -4.460938 6.199219 -3.480469 6.078125 -3.382812 C 4.804688 -2.253906 2.109375 -0.320312 0.417969 -0.320312 C 2.058594 -1.128906 3.847656 -2.476562 3.847656 -4.484375 C 3.847656 -5.390625 3.359375 -6.078125 2.890625 -6.8125 C 3.136719 -7.082031 3.40625 -7.402344 3.40625 -7.792969 C 3.40625 -7.988281 3.285156 -8.210938 3.0625 -8.210938 C 2.523438 -8.210938 2.402344 -7.402344 2.378906 -7.007812 C 1.714844 -6.101562 0.859375 -5.316406 0.0742188 -4.507812 C 0.0234375 -4.460938 -0.195312 -4.265625 -0.195312 -4.167969 C -0.195312 -4.117188 -0.171875 -4.042969 -0.0976562 -4.042969 C 0.0234375 -4.042969 2.179688 -6.296875 2.476562 -6.617188 C 2.820312 -6.125 2.917969 -5.785156 2.917969 -5.195312 C 2.917969 -3.601562 1.003906 -0.34375 -0.785156 -0.34375 C -1.101562 -0.34375 -1.496094 -0.613281 -1.496094 -0.957031 C -1.496094 -1.667969 -0.269531 -1.078125 -0.269531 -1.839844 C -0.269531 -2.132812 -0.589844 -2.230469 -0.832031 -2.230469 C -1.46875 -2.230469 -1.863281 -1.640625 -1.863281 -1.054688 C -1.863281 -0.0742188 -0.757812 0 -0.0234375 0 C 2.179688 0 4.265625 -1.570312 5.929688 -2.867188 C 6.152344 -3.039062 7.449219 -4.042969 7.449219 -4.363281 Z M 7.449219 -4.363281 "/></g></g></g><g fill="#6d4d3a" fill-opacity="1"><g transform="translate(75.543704, 25.379159)"><g/></g></g><g fill="#6d4d3a" fill-opacity="1"><g transform="translate(81.891181, 25.379159)"><g><path d="M 7.449219 -4.363281 C 7.449219 -4.4375 7.375 -4.460938 7.328125 -4.460938 C 7.253906 -4.460938 6.835938 -4.066406 6.765625 -3.996094 C 5.882812 -3.308594 5.195312 -3.089844 4.09375 -3.089844 C 4.507812 -3.773438 5.046875 -4.632812 5.046875 -5.464844 C 5.046875 -6.152344 4.65625 -6.566406 3.96875 -6.566406 C 1.910156 -6.566406 -1.839844 -3.601562 -1.839844 -1.445312 C -1.839844 -0.710938 -1.25 0 -0.488281 0 C 0.957031 0 2.917969 -1.765625 3.847656 -2.792969 C 4.140625 -2.746094 4.410156 -2.746094 4.707031 -2.746094 C 5.171875 -2.746094 6.101562 -3.160156 6.46875 -3.429688 C 6.640625 -3.554688 7.449219 -4.167969 7.449219 -4.363281 Z M 4.707031 -5.515625 C 4.707031 -4.582031 3.628906 -3.0625 2.988281 -2.425781 C 2.378906 -1.8125 0.636719 -0.367188 -0.292969 -0.367188 C -0.6875 -0.367188 -1.003906 -0.636719 -1.003906 -1.054688 C -1.003906 -1.667969 0 -2.84375 0.34375 -3.257812 C 1.101562 -4.191406 2.792969 -6.078125 4.140625 -6.078125 C 4.460938 -6.078125 4.707031 -5.832031 4.707031 -5.515625 Z M 4.707031 -5.515625 "/></g></g></g><g fill="#6d4d3a" fill-opacity="1"><g transform="translate(89.144446, 25.379159)"><g><path d="M -4.632812 4.167969 C -3.847656 2.792969 -2.941406 1.496094 -2.082031 0.171875 C 0.464844 0.171875 2.890625 -1.863281 4.535156 -3.601562 C 4.65625 -3.726562 5.390625 -4.4375 5.390625 -4.558594 C 5.390625 -4.632812 5.316406 -4.65625 5.269531 -4.65625 C 4.878906 -4.65625 1.667969 -0.367188 -1.839844 -0.21875 C -0.34375 -2.378906 1.199219 -4.484375 2.792969 -6.566406 C 4.828125 -7.546875 6.863281 -8.675781 8.578125 -10.171875 C 9.363281 -10.855469 11.421875 -12.988281 11.421875 -14.117188 C 11.421875 -14.558594 11.101562 -14.925781 10.660156 -14.925781 C 9.214844 -14.925781 6.398438 -12.082031 5.464844 -11.101562 C 2.304688 -7.792969 -0.367188 -4.066406 -3.0625 -0.390625 C -3.234375 -0.441406 -3.527344 -0.613281 -3.699219 -0.613281 C -3.824219 -0.613281 -4.019531 -0.320312 -4.019531 -0.195312 C -4.019531 0 -3.527344 0.0976562 -3.429688 0.121094 C -4.289062 1.570312 -5.171875 2.964844 -6.027344 4.410156 Z M 11.101562 -14.140625 C 11.101562 -13.011719 9.558594 -11.566406 8.796875 -10.855469 C 7.207031 -9.363281 5.246094 -8.285156 3.332031 -7.230469 C 4.386719 -8.625 8.75 -14.605469 10.5625 -14.605469 C 10.832031 -14.605469 11.101562 -14.460938 11.101562 -14.140625 Z M 11.101562 -14.140625 "/></g></g></g><g fill="#6d4d3a" fill-opacity="1"><g transform="translate(94.143316, 25.379159)"><g/></g></g><g fill="#6d4d3a" fill-opacity="1"><g transform="translate(100.489921, 25.379159)"><g><path d="M 5.316406 -5.292969 C 5.292969 -5.046875 5.269531 -4.777344 5.269531 -4.535156 C 5.269531 -3.578125 5.367188 -3.113281 5.539062 -3.113281 C 5.613281 -3.113281 5.636719 -3.257812 5.636719 -3.308594 C 5.636719 -3.699219 5.585938 -4.09375 5.585938 -4.484375 C 5.585938 -4.777344 5.613281 -5.046875 5.636719 -5.34375 C 7.179688 -5.515625 8.652344 -5.90625 10.121094 -6.421875 C 8.527344 -3.871094 5.980469 -0.34375 2.621094 -0.34375 C 1.496094 -0.34375 0.464844 -0.808594 0.464844 -2.082031 C 0.464844 -2.378906 0.710938 -3.429688 1.101562 -3.429688 C 1.371094 -3.429688 1.617188 -3.308594 1.886719 -3.308594 C 2.253906 -3.308594 2.671875 -3.652344 2.671875 -4.019531 C 2.671875 -4.335938 2.351562 -4.609375 2.035156 -4.609375 C 0.90625 -4.609375 0.0976562 -3.1875 0.0976562 -2.179688 C 0.0976562 -0.589844 1.25 0 2.695312 0 C 7.304688 0 10.636719 -4.09375 12.867188 -7.644531 C 14.949219 -8.601562 19.042969 -11.175781 19.042969 -13.847656 C 19.042969 -14.65625 18.527344 -15.144531 17.816406 -15.414062 C 18.75 -16.492188 19.828125 -17.351562 21.101562 -17.988281 C 21.199219 -18.039062 21.320312 -18.085938 21.320312 -18.234375 C 21.320312 -18.332031 21.199219 -18.355469 20.78125 -18.355469 C 16.761719 -18.355469 9.949219 -17.203125 6.398438 -15.390625 C 4.019531 -14.191406 0.464844 -11.566406 0.464844 -8.578125 C 0.464844 -6.226562 2.351562 -5.292969 4.460938 -5.292969 Z M 18.699219 -13.824219 C 18.699219 -11.714844 15.121094 -8.96875 13.308594 -8.285156 C 14.730469 -10.539062 15.953125 -12.988281 17.597656 -15.097656 C 18.210938 -14.875 18.699219 -14.53125 18.699219 -13.824219 Z M 16.519531 -15.21875 C 15.980469 -14.679688 15.464844 -14.140625 14.972656 -13.554688 C 13.332031 -11.59375 11.863281 -9.117188 10.488281 -6.9375 C 8.921875 -6.324219 7.375 -5.832031 5.710938 -5.6875 C 6.566406 -10.488281 11.691406 -14.875 16.519531 -15.21875 Z M 19.089844 -17.277344 C 18.355469 -16.761719 17.644531 -16.25 17.007812 -15.613281 C 11.691406 -15.488281 6.398438 -10.832031 5.34375 -5.660156 C 5.023438 -5.613281 4.730469 -5.613281 4.410156 -5.613281 C 2.546875 -5.613281 0.832031 -6.542969 0.832031 -8.601562 C 0.832031 -11.59375 4.707031 -13.894531 7.082031 -14.902344 C 10.855469 -16.519531 15.023438 -17.082031 19.089844 -17.277344 Z M 19.089844 -17.277344 "/></g></g></g><g fill="#6d4d3a" fill-opacity="1"><g transform="translate(114.555371, 25.379159)"><g><path d="M -1.445312 -0.195312 L -0.0742188 -0.269531 C 1.300781 -1.738281 2.402344 -3.503906 3.96875 -4.804688 C 4.363281 -5.121094 5.515625 -6.152344 6.078125 -6.152344 C 6.226562 -6.152344 6.347656 -6.027344 6.347656 -5.882812 C 6.347656 -5.097656 3.285156 -2.378906 3.285156 -1.054688 C 3.285156 -0.539062 3.75 -0.0742188 4.265625 -0.0742188 C 5.980469 -0.0742188 8.285156 -2.769531 9.410156 -3.945312 C 9.507812 -4.042969 9.777344 -4.289062 9.777344 -4.410156 C 9.777344 -4.460938 9.753906 -4.558594 9.679688 -4.558594 C 9.460938 -4.558594 6.054688 -0.539062 4.679688 -0.539062 C 4.4375 -0.539062 4.335938 -0.6875 4.335938 -0.90625 C 4.335938 -2.058594 7.277344 -4.386719 7.277344 -5.757812 C 7.277344 -6.226562 6.910156 -6.542969 6.46875 -6.542969 C 5.367188 -6.542969 4.167969 -5.417969 3.359375 -4.753906 C 3.503906 -5.097656 3.675781 -5.441406 3.675781 -5.808594 C 3.675781 -6.296875 3.359375 -6.667969 2.867188 -6.667969 C 2.109375 -6.667969 1.863281 -6.347656 1.347656 -5.832031 C 1.03125 -5.515625 0.6875 -5.171875 0.367188 -4.851562 C 0.292969 -4.777344 -0.171875 -4.335938 -0.171875 -4.238281 C -0.171875 -4.191406 -0.148438 -4.117188 -0.0742188 -4.117188 C 0.246094 -4.117188 1.863281 -6.199219 2.546875 -6.199219 C 2.746094 -6.199219 2.84375 -6.027344 2.84375 -5.855469 C 2.84375 -5.34375 1.570312 -3.871094 1.273438 -3.503906 Z M -1.445312 -0.195312 "/></g></g></g><g fill="#6d4d3a" fill-opacity="1"><g transform="translate(124.087531, 25.379159)"><g><path d="M 4.804688 -5.269531 C 4.878906 -5.390625 4.902344 -5.585938 4.902344 -5.757812 C 4.902344 -6.152344 4.238281 -6.496094 3.75 -6.496094 C 2.402344 -6.496094 1.03125 -5.441406 0.0976562 -4.558594 C -0.785156 -3.726562 -2.082031 -2.523438 -2.082031 -1.199219 C -2.082031 -0.417969 -1.667969 0 -0.882812 0 C 0.292969 0 1.398438 -1.054688 2.207031 -1.789062 C 2.109375 -1.542969 2.035156 -1.273438 2.035156 -1.003906 C 2.035156 -0.34375 2.546875 0.0234375 3.160156 0.0234375 C 4.386719 0.0234375 6.175781 -1.960938 6.910156 -2.746094 C 7.035156 -2.867188 8.457031 -4.335938 8.457031 -4.4375 C 8.457031 -4.507812 8.40625 -4.558594 8.332031 -4.558594 C 7.941406 -4.558594 4.777344 -0.34375 3.234375 -0.34375 C 2.988281 -0.34375 2.820312 -0.539062 2.820312 -0.785156 C 2.820312 -1.054688 3.113281 -1.445312 3.257812 -1.640625 L 11.25 -12.230469 L 10.097656 -12.230469 Z M 4.507812 -5.464844 C 4.507812 -4.410156 3.257812 -3.257812 2.574219 -2.574219 C 1.960938 -1.960938 0.21875 -0.390625 -0.710938 -0.390625 C -1.03125 -0.390625 -1.199219 -0.5625 -1.199219 -0.882812 C -1.199219 -1.789062 0.417969 -3.429688 1.003906 -4.042969 C 1.640625 -4.707031 2.890625 -6.101562 3.898438 -6.101562 C 4.289062 -6.101562 4.507812 -5.855469 4.507812 -5.464844 Z M 4.507812 -5.464844 "/></g></g></g><g fill="#6d4d3a" fill-opacity="1"><g transform="translate(132.24745, 25.379159)"><g><path d="M 4.191406 -8.332031 C 4.191406 -8.601562 3.96875 -8.824219 3.699219 -8.824219 C 3.285156 -8.824219 2.890625 -8.457031 2.890625 -8.039062 C 2.890625 -7.769531 3.113281 -7.546875 3.382812 -7.546875 C 3.796875 -7.546875 4.191406 -7.914062 4.191406 -8.332031 Z M 0.636719 -5.316406 C -0.0234375 -4.484375 -2.132812 -2.109375 -2.132812 -1.003906 C -2.132812 -0.417969 -1.617188 0 -1.054688 0 C 0.269531 0 3.332031 -2.941406 4.214844 -3.773438 C 4.335938 -3.898438 4.707031 -4.167969 4.707031 -4.335938 C 4.707031 -4.386719 4.679688 -4.460938 4.609375 -4.460938 C 4.507812 -4.460938 0.246094 -0.390625 -0.929688 -0.390625 C -1.152344 -0.390625 -1.273438 -0.515625 -1.273438 -0.734375 C -1.273438 -1.324219 0.21875 -3.113281 0.589844 -3.554688 L 2.941406 -6.46875 L 1.445312 -6.324219 Z M 0.636719 -5.316406 "/></g></g></g><g fill="#6d4d3a" fill-opacity="1"><g transform="translate(136.780739, 25.379159)"><g><path d="M 5.046875 -5.5625 C 5.074219 -5.636719 5.097656 -5.734375 5.097656 -5.808594 C 5.097656 -6.25 4.507812 -6.371094 4.167969 -6.371094 C 2.058594 -6.371094 -1.984375 -3.628906 -1.984375 -1.347656 C -1.984375 -0.539062 -1.371094 0 -0.589844 0 C 0.34375 0 1.46875 -1.152344 2.109375 -1.738281 C 2.007812 -1.445312 1.886719 -1.078125 1.886719 -0.785156 C 1.886719 -0.246094 2.328125 0 2.820312 0 C 4.265625 0 6.714844 -2.230469 7.695312 -3.1875 C 7.867188 -3.332031 8.773438 -4.140625 8.773438 -4.335938 C 8.773438 -4.410156 8.75 -4.460938 8.675781 -4.460938 C 8.554688 -4.460938 4.484375 -0.417969 3.234375 -0.417969 C 3.0625 -0.417969 2.84375 -0.515625 2.84375 -0.734375 C 2.84375 -1.03125 3.601562 -2.035156 3.796875 -2.277344 L 6.984375 -6.296875 L 5.585938 -6.226562 Z M 4.609375 -5.539062 C 4.609375 -4.4375 0.464844 -0.292969 -0.589844 -0.292969 C -0.832031 -0.292969 -1.054688 -0.5625 -1.054688 -0.808594 C -1.054688 -1.714844 0.757812 -3.601562 1.347656 -4.191406 C 1.960938 -4.804688 3.160156 -6.027344 4.117188 -6.027344 C 4.386719 -6.027344 4.609375 -5.808594 4.609375 -5.539062 Z M 4.609375 -5.539062 "/></g></g></g><g clip-path="url(#8e8d927c41)"><path stroke-linecap="butt" transform="matrix(0.742923, 0.00126434, -0.00126434, 0.742923, 0.708813, 2.93058)" fill="none" stroke-linejoin="miter" d="M -0.0015509 0.498306 L 200.000142 0.4997 " stroke="#545454" stroke-width="1" stroke-opacity="1" stroke-miterlimit="4"/></g><g clip-path="url(#9aa5c4091c)"><path stroke-linecap="butt" transform="matrix(0.742923, 0.00126434, -0.00126434, 0.742923, 0.709244, 48.078361)" fill="none" stroke-linejoin="miter" d="M -0.00212859 0.499191 L 199.999564 0.500585 " stroke="#000000" stroke-width="1" stroke-opacity="1" stroke-miterlimit="4"/></g><g fill="#000000" fill-opacity="1"><g transform="translate(23.614368, 41.723743)"><g><path d="M 4.15625 -0.375 C 4.019531 -0.269531 3.828125 -0.171875 3.578125 -0.078125 C 3.335938 0.00390625 3.070312 0.046875 2.78125 0.046875 C 2.289062 0.046875 1.863281 -0.0546875 1.5 -0.265625 C 1.132812 -0.484375 0.851562 -0.769531 0.65625 -1.125 C 0.457031 -1.488281 0.359375 -1.890625 0.359375 -2.328125 C 0.359375 -2.796875 0.457031 -3.21875 0.65625 -3.59375 C 0.851562 -3.96875 1.128906 -4.257812 1.484375 -4.46875 C 1.835938 -4.675781 2.238281 -4.78125 2.6875 -4.78125 C 2.957031 -4.78125 3.210938 -4.742188 3.453125 -4.671875 C 3.691406 -4.597656 3.898438 -4.503906 4.078125 -4.390625 L 3.78125 -3.6875 C 3.425781 -3.9375 3.066406 -4.0625 2.703125 -4.0625 C 2.429688 -4.0625 2.175781 -3.984375 1.9375 -3.828125 C 1.695312 -3.679688 1.503906 -3.476562 1.359375 -3.21875 C 1.210938 -2.957031 1.140625 -2.675781 1.140625 -2.375 C 1.140625 -2.050781 1.207031 -1.757812 1.34375 -1.5 C 1.476562 -1.238281 1.664062 -1.035156 1.90625 -0.890625 C 2.15625 -0.742188 2.4375 -0.671875 2.75 -0.671875 C 2.976562 -0.671875 3.1875 -0.707031 3.375 -0.78125 C 3.5625 -0.851562 3.71875 -0.941406 3.84375 -1.046875 Z M 4.15625 -0.375 "/></g></g></g><g fill="#000000" fill-opacity="1"><g transform="translate(29.26466, 41.723743)"><g><path d="M 3.234375 0 L 2.171875 -1.640625 L 1.40625 -1.640625 L 1.40625 0 L 0.65625 0 L 0.65625 -4.734375 L 1.984375 -4.734375 C 2.515625 -4.734375 2.9375 -4.597656 3.25 -4.328125 C 3.570312 -4.054688 3.734375 -3.6875 3.734375 -3.21875 C 3.734375 -2.925781 3.671875 -2.65625 3.546875 -2.40625 C 3.421875 -2.15625 3.226562 -1.960938 2.96875 -1.828125 L 4.109375 0 Z M 1.40625 -2.375 L 2.09375 -2.375 C 2.394531 -2.375 2.613281 -2.457031 2.75 -2.625 C 2.882812 -2.789062 2.953125 -2.976562 2.953125 -3.1875 C 2.953125 -3.300781 2.925781 -3.421875 2.875 -3.546875 C 2.820312 -3.671875 2.734375 -3.773438 2.609375 -3.859375 C 2.484375 -3.953125 2.316406 -4 2.109375 -4 L 1.40625 -4 Z M 1.40625 -2.375 "/></g></g></g><g fill="#000000" fill-opacity="1"><g transform="translate(34.752633, 41.723743)"><g><path d="M 3.078125 -1.109375 L 1.359375 -1.109375 L 0.90625 0 L 0.15625 0 L 2.25 -4.921875 L 2.296875 -4.921875 L 4.390625 0 L 3.515625 0 Z M 2.828125 -1.765625 L 2.234375 -3.25 L 1.625 -1.765625 Z M 2.828125 -1.765625 "/></g></g></g><g fill="#000000" fill-opacity="1"><g transform="translate(40.428893, 41.723743)"><g><path d="M 3.515625 -4.734375 L 3.515625 -4 L 1.40625 -4 L 1.40625 -2.671875 L 3.25 -2.671875 L 3.25 -1.953125 L 1.40625 -1.953125 L 1.40625 0 L 0.65625 0 L 0.65625 -4.734375 Z M 3.515625 -4.734375 "/></g></g></g><g fill="#000000" fill-opacity="1"><g transform="translate(45.416927, 41.723743)"><g><path d="M 3.484375 -4.734375 L 3.484375 -4 L 2.25 -4 L 2.25 0 L 1.5 0 L 1.5 -4 L 0.3125 -4 L 0.3125 -4.734375 Z M 3.484375 -4.734375 "/></g></g></g><g fill="#000000" fill-opacity="1"><g transform="translate(50.340031, 41.723743)"><g><path d="M 3.796875 -4.734375 L 3.796875 -4 L 1.40625 -4 L 1.40625 -2.75 L 3.53125 -2.75 L 3.53125 -2.015625 L 1.40625 -2.015625 L 1.40625 -0.734375 L 3.875 -0.734375 L 3.875 0 L 0.65625 0 L 0.65625 -4.734375 Z M 3.796875 -4.734375 "/></g></g></g><g fill="#000000" fill-opacity="1"><g transform="translate(55.75009, 41.723743)"><g><path d="M 0.65625 -4.734375 L 2 -4.734375 C 2.59375 -4.734375 3.082031 -4.613281 3.46875 -4.375 C 3.851562 -4.144531 4.132812 -3.84375 4.3125 -3.46875 C 4.488281 -3.101562 4.578125 -2.710938 4.578125 -2.296875 C 4.578125 -1.835938 4.46875 -1.429688 4.25 -1.078125 C 4.039062 -0.734375 3.753906 -0.46875 3.390625 -0.28125 C 3.035156 -0.09375 2.644531 0 2.21875 0 L 0.65625 0 Z M 2.09375 -0.734375 C 2.425781 -0.734375 2.71875 -0.796875 2.96875 -0.921875 C 3.226562 -1.046875 3.429688 -1.226562 3.578125 -1.46875 C 3.722656 -1.71875 3.796875 -2.015625 3.796875 -2.359375 C 3.796875 -2.722656 3.71875 -3.03125 3.5625 -3.28125 C 3.40625 -3.53125 3.203125 -3.710938 2.953125 -3.828125 C 2.710938 -3.953125 2.460938 -4.015625 2.203125 -4.015625 L 1.40625 -4.015625 L 1.40625 -0.734375 Z M 2.09375 -0.734375 "/></g></g></g><g fill="#000000" fill-opacity="1"><g transform="translate(61.828901, 41.723743)"><g/></g></g><g fill="#000000" fill-opacity="1"><g transform="translate(65.044414, 41.723743)"><g><path d="M 3.515625 -4.734375 L 3.515625 -4 L 1.40625 -4 L 1.40625 -2.671875 L 3.25 -2.671875 L 3.25 -1.953125 L 1.40625 -1.953125 L 1.40625 0 L 0.65625 0 L 0.65625 -4.734375 Z M 3.515625 -4.734375 "/></g></g></g><g fill="#000000" fill-opacity="1"><g transform="translate(70.032447, 41.723743)"><g><path d="M 3.234375 0 L 2.171875 -1.640625 L 1.40625 -1.640625 L 1.40625 0 L 0.65625 0 L 0.65625 -4.734375 L 1.984375 -4.734375 C 2.515625 -4.734375 2.9375 -4.597656 3.25 -4.328125 C 3.570312 -4.054688 3.734375 -3.6875 3.734375 -3.21875 C 3.734375 -2.925781 3.671875 -2.65625 3.546875 -2.40625 C 3.421875 -2.15625 3.226562 -1.960938 2.96875 -1.828125 L 4.109375 0 Z M 1.40625 -2.375 L 2.09375 -2.375 C 2.394531 -2.375 2.613281 -2.457031 2.75 -2.625 C 2.882812 -2.789062 2.953125 -2.976562 2.953125 -3.1875 C 2.953125 -3.300781 2.925781 -3.421875 2.875 -3.546875 C 2.820312 -3.671875 2.734375 -3.773438 2.609375 -3.859375 C 2.484375 -3.953125 2.316406 -4 2.109375 -4 L 1.40625 -4 Z M 1.40625 -2.375 "/></g></g></g><g fill="#000000" fill-opacity="1"><g transform="translate(75.52042, 41.723743)"><g><path d="M 0.359375 -2.359375 C 0.359375 -2.796875 0.460938 -3.195312 0.671875 -3.5625 C 0.890625 -3.9375 1.1875 -4.234375 1.5625 -4.453125 C 1.9375 -4.671875 2.34375 -4.78125 2.78125 -4.78125 C 3.207031 -4.78125 3.601562 -4.671875 3.96875 -4.453125 C 4.34375 -4.234375 4.640625 -3.9375 4.859375 -3.5625 C 5.085938 -3.1875 5.203125 -2.785156 5.203125 -2.359375 C 5.203125 -1.921875 5.09375 -1.515625 4.875 -1.140625 C 4.65625 -0.773438 4.359375 -0.484375 3.984375 -0.265625 C 3.609375 -0.0546875 3.207031 0.046875 2.78125 0.046875 C 2.34375 0.046875 1.9375 -0.0546875 1.5625 -0.265625 C 1.1875 -0.484375 0.890625 -0.773438 0.671875 -1.140625 C 0.460938 -1.515625 0.359375 -1.921875 0.359375 -2.359375 Z M 1.140625 -2.359375 C 1.140625 -2.046875 1.210938 -1.757812 1.359375 -1.5 C 1.503906 -1.25 1.703125 -1.046875 1.953125 -0.890625 C 2.210938 -0.742188 2.492188 -0.671875 2.796875 -0.671875 C 3.097656 -0.671875 3.367188 -0.742188 3.609375 -0.890625 C 3.859375 -1.046875 4.054688 -1.25 4.203125 -1.5 C 4.347656 -1.757812 4.421875 -2.046875 4.421875 -2.359375 C 4.421875 -2.671875 4.347656 -2.953125 4.203125 -3.203125 C 4.054688 -3.460938 3.851562 -3.671875 3.59375 -3.828125 C 3.34375 -3.984375 3.070312 -4.0625 2.78125 -4.0625 C 2.476562 -4.0625 2.203125 -3.984375 1.953125 -3.828125 C 1.703125 -3.671875 1.503906 -3.460938 1.359375 -3.203125 C 1.210938 -2.953125 1.140625 -2.671875 1.140625 -2.359375 Z M 1.140625 -2.359375 "/></g></g></g><g fill="#000000" fill-opacity="1"><g transform="translate(82.209549, 41.723743)"><g><path d="M 5.421875 -4.90625 L 5.421875 0 L 4.671875 0 L 4.671875 -2.734375 L 3.015625 -0.390625 L 3 -0.390625 L 1.390625 -2.625 L 1.390625 0 L 0.65625 0 L 0.65625 -4.90625 L 3.015625 -1.5625 Z M 5.421875 -4.90625 "/></g></g></g><g fill="#000000" fill-opacity="1"><g transform="translate(89.418101, 41.723743)"><g/></g></g><g fill="#000000" fill-opacity="1"><g transform="translate(92.633617, 41.723743)"><g><path d="M 4.5 0 L 3.734375 0 L 3.734375 -2.015625 L 1.40625 -2.015625 L 1.40625 0 L 0.65625 0 L 0.65625 -4.734375 L 1.40625 -4.734375 L 1.40625 -2.734375 L 3.734375 -2.734375 L 3.734375 -4.734375 L 4.5 -4.734375 Z M 4.5 0 "/></g></g></g><g fill="#000000" fill-opacity="1"><g transform="translate(98.91371, 41.723743)"><g><path d="M 3.796875 -4.734375 L 3.796875 -4 L 1.40625 -4 L 1.40625 -2.75 L 3.53125 -2.75 L 3.53125 -2.015625 L 1.40625 -2.015625 L 1.40625 -0.734375 L 3.875 -0.734375 L 3.875 0 L 0.65625 0 L 0.65625 -4.734375 Z M 3.796875 -4.734375 "/></g></g></g><g fill="#000000" fill-opacity="1"><g transform="translate(104.323771, 41.723743)"><g><path d="M 3.078125 -1.109375 L 1.359375 -1.109375 L 0.90625 0 L 0.15625 0 L 2.25 -4.921875 L 2.296875 -4.921875 L 4.390625 0 L 3.515625 0 Z M 2.828125 -1.765625 L 2.234375 -3.25 L 1.625 -1.765625 Z M 2.828125 -1.765625 "/></g></g></g><g fill="#000000" fill-opacity="1"><g transform="translate(110.000035, 41.723743)"><g><path d="M 3.234375 0 L 2.171875 -1.640625 L 1.40625 -1.640625 L 1.40625 0 L 0.65625 0 L 0.65625 -4.734375 L 1.984375 -4.734375 C 2.515625 -4.734375 2.9375 -4.597656 3.25 -4.328125 C 3.570312 -4.054688 3.734375 -3.6875 3.734375 -3.21875 C 3.734375 -2.925781 3.671875 -2.65625 3.546875 -2.40625 C 3.421875 -2.15625 3.226562 -1.960938 2.96875 -1.828125 L 4.109375 0 Z M 1.40625 -2.375 L 2.09375 -2.375 C 2.394531 -2.375 2.613281 -2.457031 2.75 -2.625 C 2.882812 -2.789062 2.953125 -2.976562 2.953125 -3.1875 C 2.953125 -3.300781 2.925781 -3.421875 2.875 -3.546875 C 2.820312 -3.671875 2.734375 -3.773438 2.609375 -3.859375 C 2.484375 -3.953125 2.316406 -4 2.109375 -4 L 1.40625 -4 Z M 1.40625 -2.375 "/></g></g></g><g fill="#000000" fill-opacity="1"><g transform="translate(115.488011, 41.723743)"><g><path d="M 3.484375 -4.734375 L 3.484375 -4 L 2.25 -4 L 2.25 0 L 1.5 0 L 1.5 -4 L 0.3125 -4 L 0.3125 -4.734375 Z M 3.484375 -4.734375 "/></g></g></g><g fill="#6d4d3a" fill-opacity="1"><g transform="translate(1.124228, 25.379159)"><g><path d="M 18.28125 -6.421875 C 15.441406 -3.652344 11.789062 -0.808594 7.621094 -0.808594 C 5.882812 -0.808594 4.730469 -1.371094 3.726562 -2.792969 C 4.484375 -2.648438 5.21875 -2.546875 6.003906 -2.546875 C 9.140625 -2.546875 11.886719 -3.75 14.363281 -5.636719 C 16.394531 -7.207031 18.503906 -9.484375 18.503906 -12.230469 C 18.503906 -14.484375 16.273438 -15.21875 14.386719 -15.21875 C 12.425781 -15.21875 10.757812 -14.65625 9.019531 -13.773438 C 6.738281 -13.554688 4.753906 -13.210938 2.867188 -11.835938 C 1.226562 -10.636719 0.0742188 -8.894531 0.0742188 -6.8125 C 0.0742188 -4.902344 1.519531 -3.527344 3.210938 -2.917969 C 4.484375 -0.757812 6.027344 0.0234375 8.503906 0.0234375 C 10.710938 0.0234375 12.695312 -0.660156 14.632812 -1.714844 C 16.835938 -2.917969 18.601562 -4.632812 20.316406 -6.421875 L 22.890625 -6.421875 C 22.105469 -5.074219 20.757812 -2.671875 20.757812 -1.101562 C 20.757812 -0.539062 21.101562 0 21.714844 0 C 22.867188 0 25.316406 -2.425781 26.078125 -3.257812 C 26.222656 -3.40625 26.933594 -4.191406 26.933594 -4.410156 C 26.933594 -4.4375 26.910156 -4.484375 26.886719 -4.484375 C 26.714844 -4.386719 25.808594 -3.429688 25.636719 -3.257812 C 25.070312 -2.695312 23.085938 -0.660156 22.277344 -0.660156 C 22.058594 -0.660156 21.957031 -0.90625 21.957031 -1.078125 C 21.957031 -2.132812 25.414062 -7.402344 26.050781 -8.355469 C 26.835938 -9.535156 27.667969 -10.683594 28.503906 -11.835938 C 29.457031 -13.210938 30.414062 -14.558594 31.445312 -15.882812 C 31.640625 -16.125 32.007812 -16.617188 32.007812 -16.960938 C 32.007812 -17.351562 31.714844 -17.425781 31.394531 -17.425781 C 30.09375 -17.425781 27.570312 -15.074219 26.664062 -14.261719 C 24.753906 -12.546875 22.890625 -10.757812 21.003906 -8.996094 C 20.242188 -8.257812 19.460938 -7.523438 18.652344 -6.8125 L 16.46875 -6.8125 C 16.320312 -6.8125 16.125 -6.789062 16.125 -6.59375 C 16.125 -6.445312 16.371094 -6.421875 16.46875 -6.421875 Z M 20.660156 -6.8125 C 22.300781 -8.601562 23.917969 -10.414062 25.5625 -12.179688 C 26.417969 -13.136719 27.253906 -14.09375 28.183594 -14.972656 C 28.796875 -15.5625 30.339844 -16.960938 31.222656 -16.960938 C 31.320312 -16.960938 31.394531 -16.960938 31.394531 -16.835938 C 31.394531 -16.691406 29.824219 -15.074219 29.628906 -14.851562 C 27.300781 -12.304688 25.097656 -9.632812 23.085938 -6.8125 Z M 18.136719 -12.179688 C 18.136719 -11.496094 17.914062 -10.785156 17.644531 -10.144531 C 16.566406 -7.621094 14.3125 -5.757812 11.933594 -4.484375 C 10.292969 -3.601562 8.160156 -2.917969 6.296875 -2.917969 C 5.34375 -2.917969 4.4375 -3.039062 3.503906 -3.257812 C 3.332031 -3.824219 3.234375 -4.238281 3.234375 -4.851562 C 3.234375 -8.355469 6.152344 -11.691406 9.019531 -13.382812 C 10.046875 -13.355469 11.199219 -13.257812 12.203125 -12.941406 C 12.449219 -12.867188 13.011719 -12.597656 13.257812 -12.597656 C 13.332031 -12.597656 13.382812 -12.644531 13.382812 -12.71875 C 13.382812 -13.332031 10.390625 -13.722656 9.851562 -13.773438 C 11.371094 -14.460938 12.867188 -14.902344 14.558594 -14.902344 C 16.25 -14.902344 18.136719 -14.140625 18.136719 -12.179688 Z M 8.085938 -13.285156 C 5.464844 -11.445312 2.890625 -8.085938 2.890625 -4.753906 C 2.890625 -4.289062 2.941406 -3.847656 3.0625 -3.382812 C 1.617188 -4.019531 0.390625 -5.121094 0.390625 -6.8125 C 0.390625 -8.601562 1.667969 -10.539062 3.089844 -11.542969 C 4.535156 -12.574219 6.324219 -13.136719 8.085938 -13.285156 Z M 8.085938 -13.285156 "/></g></g></g><g fill="#6d4d3a" fill-opacity="1"><g transform="translate(27.907395, 25.379159)"><g><path d="M 6.101562 -4.335938 C 6.101562 -4.410156 6.027344 -4.460938 5.957031 -4.460938 C 5.734375 -4.460938 2.304688 -0.5625 1.03125 -0.5625 C 0.832031 -0.5625 0.6875 -0.710938 0.6875 -0.90625 C 0.6875 -2.277344 3.503906 -4.949219 4.3125 -5.734375 C 4.386719 -5.808594 4.804688 -6.152344 4.804688 -6.273438 C 4.804688 -6.347656 4.679688 -6.445312 4.632812 -6.496094 C 4.167969 -6.371094 3.652344 -6.226562 3.1875 -6.226562 C 2.964844 -6.226562 2.746094 -6.296875 2.546875 -6.398438 C 2.769531 -6.617188 3.0625 -6.910156 3.0625 -7.253906 C 3.0625 -7.5 2.941406 -7.792969 2.648438 -7.792969 C 2.035156 -7.792969 1.8125 -6.960938 1.8125 -6.46875 C 1.25 -5.785156 0.660156 -5.121094 0.0234375 -4.507812 C -0.0234375 -4.460938 -0.171875 -4.335938 -0.171875 -4.238281 C -0.171875 -4.167969 -0.121094 -4.117188 -0.0507812 -4.117188 C 0.121094 -4.117188 1.691406 -5.855469 1.910156 -6.101562 C 2.132812 -5.929688 2.5 -5.785156 2.769531 -5.785156 C 3.015625 -5.785156 3.257812 -5.808594 3.503906 -5.882812 C 2.402344 -4.976562 -0.367188 -2.769531 -0.367188 -1.199219 C -0.367188 -0.515625 0.0234375 -0.0976562 0.710938 -0.0976562 C 1.960938 -0.0976562 4.4375 -2.597656 5.34375 -3.480469 C 5.441406 -3.578125 6.101562 -4.214844 6.101562 -4.335938 Z M 6.101562 -4.335938 "/></g></g></g><g fill="#6d4d3a" fill-opacity="1"><g transform="translate(33.812927, 25.379159)"><g><path d="M -0.148438 -4.4375 C -0.859375 -3.601562 -2.109375 -2.230469 -2.109375 -1.054688 C -2.109375 -0.367188 -1.640625 0 -0.980469 0 C 0.613281 0 3.257812 -2.746094 4.289062 -3.796875 C 4.386719 -3.898438 4.753906 -4.289062 4.753906 -4.386719 C 4.753906 -4.460938 4.679688 -4.484375 4.632812 -4.484375 C 4.484375 -4.484375 4.117188 -4.019531 4.019531 -3.921875 C 3.308594 -3.234375 0.367188 -0.390625 -0.710938 -0.390625 C -0.980469 -0.390625 -1.226562 -0.589844 -1.226562 -0.882812 C -1.226562 -1.519531 -0.515625 -2.253906 -0.148438 -2.71875 L 4.214844 -8.015625 L 5.757812 -8.015625 L 6.003906 -8.429688 L 4.507812 -8.429688 L 7.132812 -11.566406 L 5.757812 -11.371094 L 3.285156 -8.429688 L 1.863281 -8.429688 L 1.59375 -8.015625 L 2.941406 -8.015625 Z M -0.148438 -4.4375 "/></g></g></g><g fill="#6d4d3a" fill-opacity="1"><g transform="translate(38.346217, 25.379159)"><g><path d="M 4.191406 -8.332031 C 4.191406 -8.601562 3.96875 -8.824219 3.699219 -8.824219 C 3.285156 -8.824219 2.890625 -8.457031 2.890625 -8.039062 C 2.890625 -7.769531 3.113281 -7.546875 3.382812 -7.546875 C 3.796875 -7.546875 4.191406 -7.914062 4.191406 -8.332031 Z M 0.636719 -5.316406 C -0.0234375 -4.484375 -2.132812 -2.109375 -2.132812 -1.003906 C -2.132812 -0.417969 -1.617188 0 -1.054688 0 C 0.269531 0 3.332031 -2.941406 4.214844 -3.773438 C 4.335938 -3.898438 4.707031 -4.167969 4.707031 -4.335938 C 4.707031 -4.386719 4.679688 -4.460938 4.609375 -4.460938 C 4.507812 -4.460938 0.246094 -0.390625 -0.929688 -0.390625 C -1.152344 -0.390625 -1.273438 -0.515625 -1.273438 -0.734375 C -1.273438 -1.324219 0.21875 -3.113281 0.589844 -3.554688 L 2.941406 -6.46875 L 1.445312 -6.324219 Z M 0.636719 -5.316406 "/></g></g></g><g fill="#6d4d3a" fill-opacity="1"><g transform="translate(42.879507, 25.379159)"><g><path d="M 7.449219 -4.363281 C 7.449219 -4.4375 7.375 -4.460938 7.328125 -4.460938 C 7.207031 -4.460938 6.199219 -3.480469 6.078125 -3.382812 C 4.804688 -2.253906 2.109375 -0.320312 0.417969 -0.320312 C 2.058594 -1.128906 3.847656 -2.476562 3.847656 -4.484375 C 3.847656 -5.390625 3.359375 -6.078125 2.890625 -6.8125 C 3.136719 -7.082031 3.40625 -7.402344 3.40625 -7.792969 C 3.40625 -7.988281 3.285156 -8.210938 3.0625 -8.210938 C 2.523438 -8.210938 2.402344 -7.402344 2.378906 -7.007812 C 1.714844 -6.101562 0.859375 -5.316406 0.0742188 -4.507812 C 0.0234375 -4.460938 -0.195312 -4.265625 -0.195312 -4.167969 C -0.195312 -4.117188 -0.171875 -4.042969 -0.0976562 -4.042969 C 0.0234375 -4.042969 2.179688 -6.296875 2.476562 -6.617188 C 2.820312 -6.125 2.917969 -5.785156 2.917969 -5.195312 C 2.917969 -3.601562 1.003906 -0.34375 -0.785156 -0.34375 C -1.101562 -0.34375 -1.496094 -0.613281 -1.496094 -0.957031 C -1.496094 -1.667969 -0.269531 -1.078125 -0.269531 -1.839844 C -0.269531 -2.132812 -0.589844 -2.230469 -0.832031 -2.230469 C -1.46875 -2.230469 -1.863281 -1.640625 -1.863281 -1.054688 C -1.863281 -0.0742188 -0.757812 0 -0.0234375 0 C 2.179688 0 4.265625 -1.570312 5.929688 -2.867188 C 6.152344 -3.039062 7.449219 -4.042969 7.449219 -4.363281 Z M 7.449219 -4.363281 "/></g></g></g><g fill="#6d4d3a" fill-opacity="1"><g transform="translate(50.132772, 25.379159)"><g><path d="M 5.046875 -5.5625 C 5.074219 -5.636719 5.097656 -5.734375 5.097656 -5.808594 C 5.097656 -6.25 4.507812 -6.371094 4.167969 -6.371094 C 2.058594 -6.371094 -1.984375 -3.628906 -1.984375 -1.347656 C -1.984375 -0.539062 -1.371094 0 -0.589844 0 C 0.34375 0 1.46875 -1.152344 2.109375 -1.738281 C 2.007812 -1.445312 1.886719 -1.078125 1.886719 -0.785156 C 1.886719 -0.246094 2.328125 0 2.820312 0 C 4.265625 0 6.714844 -2.230469 7.695312 -3.1875 C 7.867188 -3.332031 8.773438 -4.140625 8.773438 -4.335938 C 8.773438 -4.410156 8.75 -4.460938 8.675781 -4.460938 C 8.554688 -4.460938 4.484375 -0.417969 3.234375 -0.417969 C 3.0625 -0.417969 2.84375 -0.515625 2.84375 -0.734375 C 2.84375 -1.03125 3.601562 -2.035156 3.796875 -2.277344 L 6.984375 -6.296875 L 5.585938 -6.226562 Z M 4.609375 -5.539062 C 4.609375 -4.4375 0.464844 -0.292969 -0.589844 -0.292969 C -0.832031 -0.292969 -1.054688 -0.5625 -1.054688 -0.808594 C -1.054688 -1.714844 0.757812 -3.601562 1.347656 -4.191406 C 1.960938 -4.804688 3.160156 -6.027344 4.117188 -6.027344 C 4.386719 -6.027344 4.609375 -5.808594 4.609375 -5.539062 Z M 4.609375 -5.539062 "/></g></g></g><g fill="#6d4d3a" fill-opacity="1"><g transform="translate(58.758279, 25.379159)"><g><path d="M -1.445312 -0.195312 L -0.0742188 -0.269531 C 1.300781 -1.738281 2.402344 -3.503906 3.96875 -4.804688 C 4.363281 -5.121094 5.515625 -6.152344 6.078125 -6.152344 C 6.226562 -6.152344 6.347656 -6.027344 6.347656 -5.882812 C 6.347656 -5.097656 3.285156 -2.378906 3.285156 -1.054688 C 3.285156 -0.539062 3.75 -0.0742188 4.265625 -0.0742188 C 5.980469 -0.0742188 8.285156 -2.769531 9.410156 -3.945312 C 9.507812 -4.042969 9.777344 -4.289062 9.777344 -4.410156 C 9.777344 -4.460938 9.753906 -4.558594 9.679688 -4.558594 C 9.460938 -4.558594 6.054688 -0.539062 4.679688 -0.539062 C 4.4375 -0.539062 4.335938 -0.6875 4.335938 -0.90625 C 4.335938 -2.058594 7.277344 -4.386719 7.277344 -5.757812 C 7.277344 -6.226562 6.910156 -6.542969 6.46875 -6.542969 C 5.367188 -6.542969 4.167969 -5.417969 3.359375 -4.753906 C 3.503906 -5.097656 3.675781 -5.441406 3.675781 -5.808594 C 3.675781 -6.296875 3.359375 -6.667969 2.867188 -6.667969 C 2.109375 -6.667969 1.863281 -6.347656 1.347656 -5.832031 C 1.03125 -5.515625 0.6875 -5.171875 0.367188 -4.851562 C 0.292969 -4.777344 -0.171875 -4.335938 -0.171875 -4.238281 C -0.171875 -4.191406 -0.148438 -4.117188 -0.0742188 -4.117188 C 0.246094 -4.117188 1.863281 -6.199219 2.546875 -6.199219 C 2.746094 -6.199219 2.84375 -6.027344 2.84375 -5.855469 C 2.84375 -5.34375 1.570312 -3.871094 1.273438 -3.503906 Z M -1.445312 -0.195312 "/></g></g></g><g fill="#6d4d3a" fill-opacity="1"><g transform="translate(68.290439, 25.379159)"><g><path d="M 7.449219 -4.363281 C 7.449219 -4.4375 7.375 -4.460938 7.328125 -4.460938 C 7.207031 -4.460938 6.199219 -3.480469 6.078125 -3.382812 C 4.804688 -2.253906 2.109375 -0.320312 0.417969 -0.320312 C 2.058594 -1.128906 3.847656 -2.476562 3.847656 -4.484375 C 3.847656 -5.390625 3.359375 -6.078125 2.890625 -6.8125 C 3.136719 -7.082031 3.40625 -7.402344 3.40625 -7.792969 C 3.40625 -7.988281 3.285156 -8.210938 3.0625 -8.210938 C 2.523438 -8.210938 2.402344 -7.402344 2.378906 -7.007812 C 1.714844 -6.101562 0.859375 -5.316406 0.0742188 -4.507812 C 0.0234375 -4.460938 -0.195312 -4.265625 -0.195312 -4.167969 C -0.195312 -4.117188 -0.171875 -4.042969 -0.0976562 -4.042969 C 0.0234375 -4.042969 2.179688 -6.296875 2.476562 -6.617188 C 2.820312 -6.125 2.917969 -5.785156 2.917969 -5.195312 C 2.917969 -3.601562 1.003906 -0.34375 -0.785156 -0.34375 C -1.101562 -0.34375 -1.496094 -0.613281 -1.496094 -0.957031 C -1.496094 -1.667969 -0.269531 -1.078125 -0.269531 -1.839844 C -0.269531 -2.132812 -0.589844 -2.230469 -0.832031 -2.230469 C -1.46875 -2.230469 -1.863281 -1.640625 -1.863281 -1.054688 C -1.863281 -0.0742188 -0.757812 0 -0.0234375 0 C 2.179688 0 4.265625 -1.570312 5.929688 -2.867188 C 6.152344 -3.039062 7.449219 -4.042969 7.449219 -4.363281 Z M 7.449219 -4.363281 "/></g></g></g><g fill="#6d4d3a" fill-opacity="1"><g transform="translate(75.543704, 25.379159)"><g/></g></g><g fill="#6d4d3a" fill-opacity="1"><g transform="translate(81.891181, 25.379159)"><g><path d="M 7.449219 -4.363281 C 7.449219 -4.4375 7.375 -4.460938 7.328125 -4.460938 C 7.253906 -4.460938 6.835938 -4.066406 6.765625 -3.996094 C 5.882812 -3.308594 5.195312 -3.089844 4.09375 -3.089844 C 4.507812 -3.773438 5.046875 -4.632812 5.046875 -5.464844 C 5.046875 -6.152344 4.65625 -6.566406 3.96875 -6.566406 C 1.910156 -6.566406 -1.839844 -3.601562 -1.839844 -1.445312 C -1.839844 -0.710938 -1.25 0 -0.488281 0 C 0.957031 0 2.917969 -1.765625 3.847656 -2.792969 C 4.140625 -2.746094 4.410156 -2.746094 4.707031 -2.746094 C 5.171875 -2.746094 6.101562 -3.160156 6.46875 -3.429688 C 6.640625 -3.554688 7.449219 -4.167969 7.449219 -4.363281 Z M 4.707031 -5.515625 C 4.707031 -4.582031 3.628906 -3.0625 2.988281 -2.425781 C 2.378906 -1.8125 0.636719 -0.367188 -0.292969 -0.367188 C -0.6875 -0.367188 -1.003906 -0.636719 -1.003906 -1.054688 C -1.003906 -1.667969 0 -2.84375 0.34375 -3.257812 C 1.101562 -4.191406 2.792969 -6.078125 4.140625 -6.078125 C 4.460938 -6.078125 4.707031 -5.832031 4.707031 -5.515625 Z M 4.707031 -5.515625 "/></g></g></g><g fill="#6d4d3a" fill-opacity="1"><g transform="translate(89.144446, 25.379159)"><g><path d="M -4.632812 4.167969 C -3.847656 2.792969 -2.941406 1.496094 -2.082031 0.171875 C 0.464844 0.171875 2.890625 -1.863281 4.535156 -3.601562 C 4.65625 -3.726562 5.390625 -4.4375 5.390625 -4.558594 C 5.390625 -4.632812 5.316406 -4.65625 5.269531 -4.65625 C 4.878906 -4.65625 1.667969 -0.367188 -1.839844 -0.21875 C -0.34375 -2.378906 1.199219 -4.484375 2.792969 -6.566406 C 4.828125 -7.546875 6.863281 -8.675781 8.578125 -10.171875 C 9.363281 -10.855469 11.421875 -12.988281 11.421875 -14.117188 C 11.421875 -14.558594 11.101562 -14.925781 10.660156 -14.925781 C 9.214844 -14.925781 6.398438 -12.082031 5.464844 -11.101562 C 2.304688 -7.792969 -0.367188 -4.066406 -3.0625 -0.390625 C -3.234375 -0.441406 -3.527344 -0.613281 -3.699219 -0.613281 C -3.824219 -0.613281 -4.019531 -0.320312 -4.019531 -0.195312 C -4.019531 0 -3.527344 0.0976562 -3.429688 0.121094 C -4.289062 1.570312 -5.171875 2.964844 -6.027344 4.410156 Z M 11.101562 -14.140625 C 11.101562 -13.011719 9.558594 -11.566406 8.796875 -10.855469 C 7.207031 -9.363281 5.246094 -8.285156 3.332031 -7.230469 C 4.386719 -8.625 8.75 -14.605469 10.5625 -14.605469 C 10.832031 -14.605469 11.101562 -14.460938 11.101562 -14.140625 Z M 11.101562 -14.140625 "/></g></g></g><g fill="#6d4d3a" fill-opacity="1"><g transform="translate(94.143316, 25.379159)"><g/></g></g><g fill="#6d4d3a" fill-opacity="1"><g transform="translate(100.489921, 25.379159)"><g><path d="M 5.316406 -5.292969 C 5.292969 -5.046875 5.269531 -4.777344 5.269531 -4.535156 C 5.269531 -3.578125 5.367188 -3.113281 5.539062 -3.113281 C 5.613281 -3.113281 5.636719 -3.257812 5.636719 -3.308594 C 5.636719 -3.699219 5.585938 -4.09375 5.585938 -4.484375 C 5.585938 -4.777344 5.613281 -5.046875 5.636719 -5.34375 C 7.179688 -5.515625 8.652344 -5.90625 10.121094 -6.421875 C 8.527344 -3.871094 5.980469 -0.34375 2.621094 -0.34375 C 1.496094 -0.34375 0.464844 -0.808594 0.464844 -2.082031 C 0.464844 -2.378906 0.710938 -3.429688 1.101562 -3.429688 C 1.371094 -3.429688 1.617188 -3.308594 1.886719 -3.308594 C 2.253906 -3.308594 2.671875 -3.652344 2.671875 -4.019531 C 2.671875 -4.335938 2.351562 -4.609375 2.035156 -4.609375 C 0.90625 -4.609375 0.0976562 -3.1875 0.0976562 -2.179688 C 0.0976562 -0.589844 1.25 0 2.695312 0 C 7.304688 0 10.636719 -4.09375 12.867188 -7.644531 C 14.949219 -8.601562 19.042969 -11.175781 19.042969 -13.847656 C 19.042969 -14.65625 18.527344 -15.144531 17.816406 -15.414062 C 18.75 -16.492188 19.828125 -17.351562 21.101562 -17.988281 C 21.199219 -18.039062 21.320312 -18.085938 21.320312 -18.234375 C 21.320312 -18.332031 21.199219 -18.355469 20.78125 -18.355469 C 16.761719 -18.355469 9.949219 -17.203125 6.398438 -15.390625 C 4.019531 -14.191406 0.464844 -11.566406 0.464844 -8.578125 C 0.464844 -6.226562 2.351562 -5.292969 4.460938 -5.292969 Z M 18.699219 -13.824219 C 18.699219 -11.714844 15.121094 -8.96875 13.308594 -8.285156 C 14.730469 -10.539062 15.953125 -12.988281 17.597656 -15.097656 C 18.210938 -14.875 18.699219 -14.53125 18.699219 -13.824219 Z M 16.519531 -15.21875 C 15.980469 -14.679688 15.464844 -14.140625 14.972656 -13.554688 C 13.332031 -11.59375 11.863281 -9.117188 10.488281 -6.9375 C 8.921875 -6.324219 7.375 -5.832031 5.710938 -5.6875 C 6.566406 -10.488281 11.691406 -14.875 16.519531 -15.21875 Z M 19.089844 -17.277344 C 18.355469 -16.761719 17.644531 -16.25 17.007812 -15.613281 C 11.691406 -15.488281 6.398438 -10.832031 5.34375 -5.660156 C 5.023438 -5.613281 4.730469 -5.613281 4.410156 -5.613281 C 2.546875 -5.613281 0.832031 -6.542969 0.832031 -8.601562 C 0.832031 -11.59375 4.707031 -13.894531 7.082031 -14.902344 C 10.855469 -16.519531 15.023438 -17.082031 19.089844 -17.277344 Z M 19.089844 -17.277344 "/></g></g></g><g fill="#6d4d3a" fill-opacity="1"><g transform="translate(114.555371, 25.379159)"><g><path d="M -1.445312 -0.195312 L -0.0742188 -0.269531 C 1.300781 -1.738281 2.402344 -3.503906 3.96875 -4.804688 C 4.363281 -5.121094 5.515625 -6.152344 6.078125 -6.152344 C 6.226562 -6.152344 6.347656 -6.027344 6.347656 -5.882812 C 6.347656 -5.097656 3.285156 -2.378906 3.285156 -1.054688 C 3.285156 -0.539062 3.75 -0.0742188 4.265625 -0.0742188 C 5.980469 -0.0742188 8.285156 -2.769531 9.410156 -3.945312 C 9.507812 -4.042969 9.777344 -4.289062 9.777344 -4.410156 C 9.777344 -4.460938 9.753906 -4.558594 9.679688 -4.558594 C 9.460938 -4.558594 6.054688 -0.539062 4.679688 -0.539062 C 4.4375 -0.539062 4.335938 -0.6875 4.335938 -0.90625 C 4.335938 -2.058594 7.277344 -4.386719 7.277344 -5.757812 C 7.277344 -6.226562 6.910156 -6.542969 6.46875 -6.542969 C 5.367188 -6.542969 4.167969 -5.417969 3.359375 -4.753906 C 3.503906 -5.097656 3.675781 -5.441406 3.675781 -5.808594 C 3.675781 -6.296875 3.359375 -6.667969 2.867188 -6.667969 C 2.109375 -6.667969 1.863281 -6.347656 1.347656 -5.832031 C 1.03125 -5.515625 0.6875 -5.171875 0.367188 -4.851562 C 0.292969 -4.777344 -0.171875 -4.335938 -0.171875 -4.238281 C -0.171875 -4.191406 -0.148438 -4.117188 -0.0742188 -4.117188 C 0.246094 -4.117188 1.863281 -6.199219 2.546875 -6.199219 C 2.746094 -6.199219 2.84375 -6.027344 2.84375 -5.855469 C 2.84375 -5.34375 1.570312 -3.871094 1.273438 -3.503906 Z M -1.445312 -0.195312 "/></g></g></g><g fill="#6d4d3a" fill-opacity="1"><g transform="translate(124.087531, 25.379159)"><g><path d="M 4.804688 -5.269531 C 4.878906 -5.390625 4.902344 -5.585938 4.902344 -5.757812 C 4.902344 -6.152344 4.238281 -6.496094 3.75 -6.496094 C 2.402344 -6.496094 1.03125 -5.441406 0.0976562 -4.558594 C -0.785156 -3.726562 -2.082031 -2.523438 -2.082031 -1.199219 C -2.082031 -0.417969 -1.667969 0 -0.882812 0 C 0.292969 0 1.398438 -1.054688 2.207031 -1.789062 C 2.109375 -1.542969 2.035156 -1.273438 2.035156 -1.003906 C 2.035156 -0.34375 2.546875 0.0234375 3.160156 0.0234375 C 4.386719 0.0234375 6.175781 -1.960938 6.910156 -2.746094 C 7.035156 -2.867188 8.457031 -4.335938 8.457031 -4.4375 C 8.457031 -4.507812 8.40625 -4.558594 8.332031 -4.558594 C 7.941406 -4.558594 4.777344 -0.34375 3.234375 -0.34375 C 2.988281 -0.34375 2.820312 -0.539062 2.820312 -0.785156 C 2.820312 -1.054688 3.113281 -1.445312 3.257812 -1.640625 L 11.25 -12.230469 L 10.097656 -12.230469 Z M 4.507812 -5.464844 C 4.507812 -4.410156 3.257812 -3.257812 2.574219 -2.574219 C 1.960938 -1.960938 0.21875 -0.390625 -0.710938 -0.390625 C -1.03125 -0.390625 -1.199219 -0.5625 -1.199219 -0.882812 C -1.199219 -1.789062 0.417969 -3.429688 1.003906 -4.042969 C 1.640625 -4.707031 2.890625 -6.101562 3.898438 -6.101562 C 4.289062 -6.101562 4.507812 -5.855469 4.507812 -5.464844 Z M 4.507812 -5.464844 "/></g></g></g><g fill="#6d4d3a" fill-opacity="1"><g transform="translate(132.24745, 25.379159)"><g><path d="M 4.191406 -8.332031 C 4.191406 -8.601562 3.96875 -8.824219 3.699219 -8.824219 C 3.285156 -8.824219 2.890625 -8.457031 2.890625 -8.039062 C 2.890625 -7.769531 3.113281 -7.546875 3.382812 -7.546875 C 3.796875 -7.546875 4.191406 -7.914062 4.191406 -8.332031 Z M 0.636719 -5.316406 C -0.0234375 -4.484375 -2.132812 -2.109375 -2.132812 -1.003906 C -2.132812 -0.417969 -1.617188 0 -1.054688 0 C 0.269531 0 3.332031 -2.941406 4.214844 -3.773438 C 4.335938 -3.898438 4.707031 -4.167969 4.707031 -4.335938 C 4.707031 -4.386719 4.679688 -4.460938 4.609375 -4.460938 C 4.507812 -4.460938 0.246094 -0.390625 -0.929688 -0.390625 C -1.152344 -0.390625 -1.273438 -0.515625 -1.273438 -0.734375 C -1.273438 -1.324219 0.21875 -3.113281 0.589844 -3.554688 L 2.941406 -6.46875 L 1.445312 -6.324219 Z M 0.636719 -5.316406 "/></g></g></g><g fill="#6d4d3a" fill-opacity="1"><g transform="translate(136.780739, 25.379159)"><g><path d="M 5.046875 -5.5625 C 5.074219 -5.636719 5.097656 -5.734375 5.097656 -5.808594 C 5.097656 -6.25 4.507812 -6.371094 4.167969 -6.371094 C 2.058594 -6.371094 -1.984375 -3.628906 -1.984375 -1.347656 C -1.984375 -0.539062 -1.371094 0 -0.589844 0 C 0.34375 0 1.46875 -1.152344 2.109375 -1.738281 C 2.007812 -1.445312 1.886719 -1.078125 1.886719 -0.785156 C 1.886719 -0.246094 2.328125 0 2.820312 0 C 4.265625 0 6.714844 -2.230469 7.695312 -3.1875 C 7.867188 -3.332031 8.773438 -4.140625 8.773438 -4.335938 C 8.773438 -4.410156 8.75 -4.460938 8.675781 -4.460938 C 8.554688 -4.460938 4.484375 -0.417969 3.234375 -0.417969 C 3.0625 -0.417969 2.84375 -0.515625 2.84375 -0.734375 C 2.84375 -1.03125 3.601562 -2.035156 3.796875 -2.277344 L 6.984375 -6.296875 L 5.585938 -6.226562 Z M 4.609375 -5.539062 C 4.609375 -4.4375 0.464844 -0.292969 -0.589844 -0.292969 C -0.832031 -0.292969 -1.054688 -0.5625 -1.054688 -0.808594 C -1.054688 -1.714844 0.757812 -3.601562 1.347656 -4.191406 C 1.960938 -4.804688 3.160156 -6.027344 4.117188 -6.027344 C 4.386719 -6.027344 4.609375 -5.808594 4.609375 -5.539062 Z M 4.609375 -5.539062 "/></g></g></g><g clip-path="url(#b23aa645fd)"><path stroke-linecap="butt" transform="matrix(0.742923, 0.00126434, -0.00126434, 0.742923, 0.708813, 2.93058)" fill="none" stroke-linejoin="miter" d="M -0.0015509 0.498306 L 200.000142 0.4997 " stroke="#545454" stroke-width="1" stroke-opacity="1" stroke-miterlimit="4"/></g><g clip-path="url(#bea1f4f2e6)"><path stroke-linecap="butt" transform="matrix(0.742923, 0.00126434, -0.00126434, 0.742923, 0.709244, 48.078361)" fill="none" stroke-linejoin="miter" d="M -0.00212859 0.499191 L 199.999564 0.500585 " stroke="#000000" stroke-width="1" stroke-opacity="1" stroke-miterlimit="4"/></g><g fill="#000000" fill-opacity="1"><g transform="translate(23.614368, 41.723743)"><g><path d="M 4.15625 -0.375 C 4.019531 -0.269531 3.828125 -0.171875 3.578125 -0.078125 C 3.335938 0.00390625 3.070312 0.046875 2.78125 0.046875 C 2.289062 0.046875 1.863281 -0.0546875 1.5 -0.265625 C 1.132812 -0.484375 0.851562 -0.769531 0.65625 -1.125 C 0.457031 -1.488281 0.359375 -1.890625 0.359375 -2.328125 C 0.359375 -2.796875 0.457031 -3.21875 0.65625 -3.59375 C 0.851562 -3.96875 1.128906 -4.257812 1.484375 -4.46875 C 1.835938 -4.675781 2.238281 -4.78125 2.6875 -4.78125 C 2.957031 -4.78125 3.210938 -4.742188 3.453125 -4.671875 C 3.691406 -4.597656 3.898438 -4.503906 4.078125 -4.390625 L 3.78125 -3.6875 C 3.425781 -3.9375 3.066406 -4.0625 2.703125 -4.0625 C 2.429688 -4.0625 2.175781 -3.984375 1.9375 -3.828125 C 1.695312 -3.679688 1.503906 -3.476562 1.359375 -3.21875 C 1.210938 -2.957031 1.140625 -2.675781 1.140625 -2.375 C 1.140625 -2.050781 1.207031 -1.757812 1.34375 -1.5 C 1.476562 -1.238281 1.664062 -1.035156 1.90625 -0.890625 C 2.15625 -0.742188 2.4375 -0.671875 2.75 -0.671875 C 2.976562 -0.671875 3.1875 -0.707031 3.375 -0.78125 C 3.5625 -0.851562 3.71875 -0.941406 3.84375 -1.046875 Z M 4.15625 -0.375 "/></g></g></g><g fill="#000000" fill-opacity="1"><g transform="translate(29.26466, 41.723743)"><g><path d="M 3.234375 0 L 2.171875 -1.640625 L 1.40625 -1.640625 L 1.40625 0 L 0.65625 0 L 0.65625 -4.734375 L 1.984375 -4.734375 C 2.515625 -4.734375 2.9375 -4.597656 3.25 -4.328125 C 3.570312 -4.054688 3.734375 -3.6875 3.734375 -3.21875 C 3.734375 -2.925781 3.671875 -2.65625 3.546875 -2.40625 C 3.421875 -2.15625 3.226562 -1.960938 2.96875 -1.828125 L 4.109375 0 Z M 1.40625 -2.375 L 2.09375 -2.375 C 2.394531 -2.375 2.613281 -2.457031 2.75 -2.625 C 2.882812 -2.789062 2.953125 -2.976562 2.953125 -3.1875 C 2.953125 -3.300781 2.925781 -3.421875 2.875 -3.546875 C 2.820312 -3.671875 2.734375 -3.773438 2.609375 -3.859375 C 2.484375 -3.953125 2.316406 -4 2.109375 -4 L 1.40625 -4 Z M 1.40625 -2.375 "/></g></g></g><g fill="#000000" fill-opacity="1"><g transform="translate(34.752633, 41.723743)"><g><path d="M 3.078125 -1.109375 L 1.359375 -1.109375 L 0.90625 0 L 0.15625 0 L 2.25 -4.921875 L 2.296875 -4.921875 L 4.390625 0 L 3.515625 0 Z M 2.828125 -1.765625 L 2.234375 -3.25 L 1.625 -1.765625 Z M 2.828125 -1.765625 "/></g></g></g><g fill="#000000" fill-opacity="1"><g transform="translate(40.428893, 41.723743)"><g><path d="M 3.515625 -4.734375 L 3.515625 -4 L 1.40625 -4 L 1.40625 -2.671875 L 3.25 -2.671875 L 3.25 -1.953125 L 1.40625 -1.953125 L 1.40625 0 L 0.65625 0 L 0.65625 -4.734375 Z M 3.515625 -4.734375 "/></g></g></g><g fill="#000000" fill-opacity="1"><g transform="translate(45.416927, 41.723743)"><g><path d="M 3.484375 -4.734375 L 3.484375 -4 L 2.25 -4 L 2.25 0 L 1.5 0 L 1.5 -4 L 0.3125 -4 L 0.3125 -4.734375 Z M 3.484375 -4.734375 "/></g></g></g><g fill="#000000" fill-opacity="1"><g transform="translate(50.340031, 41.723743)"><g><path d="M 3.796875 -4.734375 L 3.796875 -4 L 1.40625 -4 L 1.40625 -2.75 L 3.53125 -2.75 L 3.53125 -2.015625 L 1.40625 -2.015625 L 1.40625 -0.734375 L 3.875 -0.734375 L 3.875 0 L 0.65625 0 L 0.65625 -4.734375 Z M 3.796875 -4.734375 "/></g></g></g><g fill="#000000" fill-opacity="1"><g transform="translate(55.75009, 41.723743)"><g><path d="M 0.65625 -4.734375 L 2 -4.734375 C 2.59375 -4.734375 3.082031 -4.613281 3.46875 -4.375 C 3.851562 -4.144531 4.132812 -3.84375 4.3125 -3.46875 C 4.488281 -3.101562 4.578125 -2.710938 4.578125 -2.296875 C 4.578125 -1.835938 4.46875 -1.429688 4.25 -1.078125 C 4.039062 -0.734375 3.753906 -0.46875 3.390625 -0.28125 C 3.035156 -0.09375 2.644531 0 2.21875 0 L 0.65625 0 Z M 2.09375 -0.734375 C 2.425781 -0.734375 2.71875 -0.796875 2.96875 -0.921875 C 3.226562 -1.046875 3.429688 -1.226562 3.578125 -1.46875 C 3.722656 -1.71875 3.796875 -2.015625 3.796875 -2.359375 C 3.796875 -2.722656 3.71875 -3.03125 3.5625 -3.28125 C 3.40625 -3.53125 3.203125 -3.710938 2.953125 -3.828125 C 2.710938 -3.953125 2.460938 -4.015625 2.203125 -4.015625 L 1.40625 -4.015625 L 1.40625 -0.734375 Z M 2.09375 -0.734375 "/></g></g></g><g fill="#000000" fill-opacity="1"><g transform="translate(61.828901, 41.723743)"><g/></g></g><g fill="#000000" fill-opacity="1"><g transform="translate(65.044414, 41.723743)"><g><path d="M 3.515625 -4.734375 L 3.515625 -4 L 1.40625 -4 L 1.40625 -2.671875 L 3.25 -2.671875 L 3.25 -1.953125 L 1.40625 -1.953125 L 1.40625 0 L 0.65625 0 L 0.65625 -4.734375 Z M 3.515625 -4.734375 "/></g></g></g><g fill="#000000" fill-opacity="1"><g transform="translate(70.032447, 41.723743)"><g><path d="M 3.234375 0 L 2.171875 -1.640625 L 1.40625 -1.640625 L 1.40625 0 L 0.65625 0 L 0.65625 -4.734375 L 1.984375 -4.734375 C 2.515625 -4.734375 2.9375 -4.597656 3.25 -4.328125 C 3.570312 -4.054688 3.734375 -3.6875 3.734375 -3.21875 C 3.734375 -2.925781 3.671875 -2.65625 3.546875 -2.40625 C 3.421875 -2.15625 3.226562 -1.960938 2.96875 -1.828125 L 4.109375 0 Z M 1.40625 -2.375 L 2.09375 -2.375 C 2.394531 -2.375 2.613281 -2.457031 2.75 -2.625 C 2.882812 -2.789062 2.953125 -2.976562 2.953125 -3.1875 C 2.953125 -3.300781 2.925781 -3.421875 2.875 -3.546875 C 2.820312 -3.671875 2.734375 -3.773438 2.609375 -3.859375 C 2.484375 -3.953125 2.316406 -4 2.109375 -4 L 1.40625 -4 Z M 1.40625 -2.375 "/></g></g></g><g fill="#000000" fill-opacity="1"><g transform="translate(75.52042, 41.723743)"><g><path d="M 0.359375 -2.359375 C 0.359375 -2.796875 0.460938 -3.195312 0.671875 -3.5625 C 0.890625 -3.9375 1.1875 -4.234375 1.5625 -4.453125 C 1.9375 -4.671875 2.34375 -4.78125 2.78125 -4.78125 C 3.207031 -4.78125 3.601562 -4.671875 3.96875 -4.453125 C 4.34375 -4.234375 4.640625 -3.9375 4.859375 -3.5625 C 5.085938 -3.1875 5.203125 -2.785156 5.203125 -2.359375 C 5.203125 -1.921875 5.09375 -1.515625 4.875 -1.140625 C 4.65625 -0.773438 4.359375 -0.484375 3.984375 -0.265625 C 3.609375 -0.0546875 3.207031 0.046875 2.78125 0.046875 C 2.34375 0.046875 1.9375 -0.0546875 1.5625 -0.265625 C 1.1875 -0.484375 0.890625 -0.773438 0.671875 -1.140625 C 0.460938 -1.515625 0.359375 -1.921875 0.359375 -2.359375 Z M 1.140625 -2.359375 C 1.140625 -2.046875 1.210938 -1.757812 1.359375 -1.5 C 1.503906 -1.25 1.703125 -1.046875 1.953125 -0.890625 C 2.210938 -0.742188 2.492188 -0.671875 2.796875 -0.671875 C 3.097656 -0.671875 3.367188 -0.742188 3.609375 -0.890625 C 3.859375 -1.046875 4.054688 -1.25 4.203125 -1.5 C 4.347656 -1.757812 4.421875 -2.046875 4.421875 -2.359375 C 4.421875 -2.671875 4.347656 -2.953125 4.203125 -3.203125 C 4.054688 -3.460938 3.851562 -3.671875 3.59375 -3.828125 C 3.34375 -3.984375 3.070312 -4.0625 2.78125 -4.0625 C 2.476562 -4.0625 2.203125 -3.984375 1.953125 -3.828125 C 1.703125 -3.671875 1.503906 -3.460938 1.359375 -3.203125 C 1.210938 -2.953125 1.140625 -2.671875 1.140625 -2.359375 Z M 1.140625 -2.359375 "/></g></g></g><g fill="#000000" fill-opacity="1"><g transform="translate(82.209549, 41.723743)"><g><path d="M 5.421875 -4.90625 L 5.421875 0 L 4.671875 0 L 4.671875 -2.734375 L 3.015625 -0.390625 L 3 -0.390625 L 1.390625 -2.625 L 1.390625 0 L 0.65625 0 L 0.65625 -4.90625 L 3.015625 -1.5625 Z M 5.421875 -4.90625 "/></g></g></g><g fill="#000000" fill-opacity="1"><g transform="translate(89.418101, 41.723743)"><g/></g></g><g fill="#000000" fill-opacity="1"><g transform="translate(92.633617, 41.723743)"><g><path d="M 4.5 0 L 3.734375 0 L 3.734375 -2.015625 L 1.40625 -2.015625 L 1.40625 0 L 0.65625 0 L 0.65625 -4.734375 L 1.40625 -4.734375 L 1.40625 -2.734375 L 3.734375 -2.734375 L 3.734375 -4.734375 L 4.5 -4.734375 Z M 4.5 0 "/></g></g></g><g fill="#000000" fill-opacity="1"><g transform="translate(98.91371, 41.723743)"><g><path d="M 3.796875 -4.734375 L 3.796875 -4 L 1.40625 -4 L 1.40625 -2.75 L 3.53125 -2.75 L 3.53125 -2.015625 L 1.40625 -2.015625 L 1.40625 -0.734375 L 3.875 -0.734375 L 3.875 0 L 0.65625 0 L 0.65625 -4.734375 Z M 3.796875 -4.734375 "/></g></g></g><g fill="#000000" fill-opacity="1"><g transform="translate(104.323771, 41.723743)"><g><path d="M 3.078125 -1.109375 L 1.359375 -1.109375 L 0.90625 0 L 0.15625 0 L 2.25 -4.921875 L 2.296875 -4.921875 L 4.390625 0 L 3.515625 0 Z M 2.828125 -1.765625 L 2.234375 -3.25 L 1.625 -1.765625 Z M 2.828125 -1.765625 "/></g></g></g><g fill="#000000" fill-opacity="1"><g transform="translate(110.000035, 41.723743)"><g><path d="M 3.234375 0 L 2.171875 -1.640625 L 1.40625 -1.640625 L 1.40625 0 L 0.65625 0 L 0.65625 -4.734375 L 1.984375 -4.734375 C 2.515625 -4.734375 2.9375 -4.597656 3.25 -4.328125 C 3.570312 -4.054688 3.734375 -3.6875 3.734375 -3.21875 C 3.734375 -2.925781 3.671875 -2.65625 3.546875 -2.40625 C 3.421875 -2.15625 3.226562 -1.960938 2.96875 -1.828125 L 4.109375 0 Z M 1.40625 -2.375 L 2.09375 -2.375 C 2.394531 -2.375 2.613281 -2.457031 2.75 -2.625 C 2.882812 -2.789062 2.953125 -2.976562 2.953125 -3.1875 C 2.953125 -3.300781 2.925781 -3.421875 2.875 -3.546875 C 2.820312 -3.671875 2.734375 -3.773438 2.609375 -3.859375 C 2.484375 -3.953125 2.316406 -4 2.109375 -4 L 1.40625 -4 Z M 1.40625 -2.375 "/></g></g></g><g fill="#000000" fill-opacity="1"><g transform="translate(115.488011, 41.723743)"><g><path d="M 3.484375 -4.734375 L 3.484375 -4 L 2.25 -4 L 2.25 0 L 1.5 0 L 1.5 -4 L 0.3125 -4 L 0.3125 -4.734375 Z M 3.484375 -4.734375 "/></g></g></g></svg>